<svg width="834" height="702" viewBox="0 0 834 702" fill="none" xmlns="http://www.w3.org/2000/svg">
<path d="M507.138 309.459C509.467 308.869 511.912 308.569 514.404 308.569C522.18 308.569 528.457 311.467 530.197 312.356C530.446 312.482 530.723 312.55 531 312.55C531.276 312.55 531.554 312.482 531.804 312.356C533.543 311.467 539.82 308.569 547.596 308.569C550.088 308.569 552.532 308.869 554.862 309.459C555.591 309.641 556.314 309.073 556.314 308.341V275.731C556.314 275.204 555.96 274.741 555.452 274.604C552.937 273.935 550.294 273.595 547.597 273.595C539.624 273.595 533.167 276.567 531.377 277.478C531.139 277.6 530.862 277.6 530.622 277.477C528.833 276.567 522.376 273.595 514.403 273.595C511.706 273.595 509.063 273.935 506.547 274.605C506.04 274.741 505.686 275.204 505.686 275.731V308.341C505.686 308.656 505.81 308.95 506.036 309.168C506.323 309.447 506.74 309.558 507.138 309.459ZM547.597 274.579C550.209 274.579 552.767 274.907 555.197 275.555C555.273 275.575 555.331 275.651 555.331 275.731V308.341C555.331 308.448 555.238 308.521 555.104 308.505C552.696 307.896 550.169 307.586 547.596 307.586C539.774 307.586 533.436 310.434 531.492 311.412V278.475C531.605 278.444 531.718 278.408 531.824 278.354C533.564 277.468 539.843 274.579 547.597 274.579ZM506.669 275.731C506.669 275.651 506.727 275.575 506.802 275.555C509.233 274.907 511.791 274.579 514.403 274.579C522.157 274.579 528.436 277.468 530.175 278.353C530.281 278.408 530.394 278.444 530.508 278.475V311.412C528.562 310.433 522.225 307.586 514.404 307.586C511.831 307.586 509.304 307.896 506.847 308.512C506.764 308.512 506.669 308.423 506.669 308.341V275.731V275.731Z" fill="black"/>
<path d="M536.082 284.498C536.158 284.498 536.233 284.481 536.304 284.445C537.708 283.73 543.383 281.884 550.788 282.73C551.054 282.763 551.302 282.568 551.333 282.298C551.364 282.028 551.17 281.784 550.9 281.753C543.252 280.876 537.329 282.819 535.859 283.568C535.617 283.692 535.52 283.988 535.644 284.23C535.73 284.4 535.903 284.498 536.082 284.498Z" fill="black"/>
<path d="M536.082 290.252C536.158 290.252 536.233 290.235 536.304 290.199C537.708 289.485 543.383 287.639 550.788 288.485C551.054 288.521 551.302 288.323 551.333 288.052C551.364 287.783 551.17 287.539 550.9 287.508C543.253 286.632 537.329 288.573 535.859 289.322C535.617 289.446 535.52 289.742 535.644 289.984C535.73 290.154 535.903 290.252 536.082 290.252Z" fill="black"/>
<path d="M536.082 296.006C536.158 296.006 536.233 295.989 536.304 295.953C537.708 295.239 543.383 293.39 550.788 294.238C551.054 294.272 551.302 294.077 551.333 293.806C551.364 293.536 551.17 293.293 550.9 293.262C543.252 292.386 537.33 294.328 535.859 295.076C535.617 295.2 535.52 295.496 535.644 295.738C535.73 295.908 535.903 296.006 536.082 296.006Z" fill="black"/>
<path d="M536.082 301.761C536.158 301.761 536.233 301.744 536.304 301.708C537.708 300.993 543.383 299.145 550.788 299.992C551.054 300.023 551.302 299.831 551.333 299.56C551.364 299.29 551.17 299.047 550.9 299.016C543.252 298.138 537.329 300.082 535.859 300.831C535.617 300.954 535.52 301.25 535.644 301.492C535.73 301.663 535.903 301.761 536.082 301.761Z" fill="black"/>
<path d="M511.233 282.73C518.645 281.883 524.314 283.73 525.718 284.445C525.789 284.481 525.865 284.498 525.941 284.498C526.12 284.498 526.293 284.4 526.379 284.23C526.503 283.988 526.406 283.692 526.164 283.568C524.692 282.819 518.764 280.875 511.122 281.753C510.852 281.784 510.658 282.028 510.689 282.298C510.72 282.568 510.967 282.761 511.233 282.73Z" fill="black"/>
<path d="M511.233 288.485C518.639 287.636 524.314 289.484 525.718 290.199C525.789 290.235 525.865 290.252 525.941 290.252C526.12 290.252 526.293 290.154 526.379 289.984C526.503 289.742 526.406 289.446 526.164 289.322C524.692 288.574 518.765 286.633 511.122 287.508C510.852 287.539 510.658 287.783 510.689 288.052C510.72 288.322 510.967 288.519 511.233 288.485Z" fill="black"/>
<path d="M511.233 294.238C518.64 293.39 524.315 295.239 525.718 295.953C525.789 295.989 525.865 296.006 525.941 296.006C526.12 296.006 526.293 295.908 526.379 295.737C526.503 295.495 526.406 295.2 526.164 295.076C524.692 294.327 518.769 292.383 511.122 293.262C510.852 293.293 510.658 293.536 510.689 293.806C510.72 294.077 510.967 294.27 511.233 294.238Z" fill="black"/>
<path d="M511.233 299.992C518.645 299.145 524.314 300.993 525.718 301.708C525.789 301.744 525.865 301.761 525.941 301.761C526.12 301.761 526.293 301.663 526.379 301.492C526.503 301.25 526.406 300.954 526.164 300.831C524.692 300.081 518.764 298.139 511.122 299.016C510.852 299.047 510.658 299.29 510.689 299.56C510.72 299.831 510.967 300.021 511.233 299.992Z" fill="black"/>
</svg>
